<?xml version="1.0" encoding="UTF-8"?>
<svg id="Layer_1" xmlns="http://www.w3.org/2000/svg" version="1.1" viewBox="0 0 203.5 93">
  <!-- Generator: Adobe Illustrator 29.4.0, SVG Export Plug-In . SVG Version: 2.1.0 Build 73)  -->
  <defs>
    <style>
      .st0 {
        fill: #fff6e3;
      }
    </style>
  </defs>
  <path class="st0" d="M71.9,61.7c0,6.7-2.8,11.8-8.3,15.4-5.5,3.6-13.5,5.4-23.8,5.4s-16.9-1.5-21.8-4.4c-5-2.9-7.5-7.1-7.5-12.6s1.2-6.2,3.7-8.4c2.5-2.2,5.6-3.2,9.5-3.2s8,1,10.7,2.9c2.6,2,3.9,4.6,3.9,8s-.9,4.5-2.6,6c-1.7,1.5-4.2,2.3-7.3,2.4-.4.4-.6.8-.6,1.3s.2.8.7,1.1c.4.3,1,.4,1.7.4,3.3,0,6.1-1.1,8.3-3.2,2.2-2.1,3.3-4.8,3.3-8s-.5-4.8-1.6-6.5c-1.1-1.7-2.8-3.2-5.2-4.5-2.4-1.3-5.6-2.6-9.6-3.9-4.6-1.4-8.1-3.5-10.4-6.3-2.3-2.8-3.5-6.2-3.5-10.3s1.2-7.5,3.8-10.6,6.1-5.6,10.8-7.4c4.7-1.8,10.2-2.7,16.5-2.7s15.7,1.5,20.7,4.5c5,3,7.5,7.2,7.5,12.5s-1.3,6.2-3.9,8.4c-2.6,2.2-5.9,3.2-10,3.2s-7.6-1-10.1-3c-2.6-2-3.9-4.6-3.9-7.9s.9-4.5,2.6-6c1.7-1.5,4.2-2.3,7.3-2.4.4-.4.6-.8.6-1.3s-.2-.8-.6-1.1c-.4-.3-1-.4-1.7-.4-2.1,0-4.1.5-5.8,1.5-1.8,1-3.2,2.3-4.2,4-1.1,1.7-1.6,3.6-1.6,5.8,0,3.7,1.2,6.6,3.7,8.9,2.5,2.2,6.7,4.2,12.7,5.9,5.5,1.5,9.6,3.7,12.2,6.4,2.6,2.7,4,6.2,4,10.4Z"/>
  <path class="st0" d="M118.8,81.9c-6.7,0-11.5-2.8-14.4-8.3-1.5,2.9-3.4,5-5.7,6.3-2.2,1.3-5,2-8.2,2s-8.3-1.1-11.1-3.4-4.2-5.3-4.2-9,1.2-5.8,3.5-7.8c2.3-1.9,5.8-3.2,10.7-3.8,12.3-1.6,18.4-6.2,18.4-13.9s-1.1-5.7-3.2-7.9c-2.1-2.2-4.7-3.4-7.6-3.4s-2.1.5-2.1,1.4,0,.7.3,1c2.8,0,5.1.8,6.9,2.5,1.8,1.7,2.7,3.8,2.7,6.4s-1.3,5.6-3.8,7.6c-2.6,2-5.9,3-9.9,3s-7.3-1-9.7-3c-2.4-2-3.6-4.7-3.6-8.1s2.2-8,6.5-10.8c4.3-2.7,10.1-4,17.2-4s15,2.1,19.5,6.2c4.4,4.1,6.6,10.2,6.6,18.2v12.5c0,1.1.1,1.9.3,2.3.2.4.5.6,1,.6s1-.3,1.3-.8c.3-.5.5-1.6.7-3.1.1-1.1.3-1.8.4-2,.1-.2.4-.4.8-.4h1.7c.4,0,.7.2.9.7.2.5.2,1.2.2,2.3,0,5.3-1.4,9.5-4.2,12.4-2.8,2.9-6.7,4.4-11.8,4.4ZM102.7,60.3c-.4-.5-.9-.8-1.6-.8-1.1,0-1.7.7-1.7,2v6.4c0,1.3.6,2,1.7,2s1.2-.3,1.6-.8v-8.8Z"/>
  <path class="st0" d="M139.3,21.1c0-2.3-.3-4.1-1-5.4-.7-1.2-1.9-2.4-3.7-3.4-.5-.3-.8-.5-.8-.6,0-.2-.2-.4-.2-.7v-1.2c0-.7.4-1,1.2-1h25.9c1.3,0,2.1.2,2.6.8s.8,1.3.8,2.4v20.9c2.8-2.8,6.6-4.2,11.5-4.2s10.6,2.2,14,6.8c3.4,4.5,5.1,10.7,5.1,18.5s-2.3,15.8-7,20.7c-4.6,4.8-11.2,7.2-19.8,7.2s-8.6-.7-11.8-2c-3.2-1.3-6.2-3.5-9.2-6.5-.5,0-1,.4-1.2,1.1-.3.8-.8,2.4-1.3,4.9,0,.5-.2.8-.4,1-.2.2-.5.2-1,.2h-2.5c-.5,0-.8-.1-1-.3-.2-.2-.2-.7-.2-1.3V21.1ZM167.7,39.9c0-1.6-.6-2.4-1.9-2.4s-1.3.3-1.7.8v38.1c.4.5,1,.8,1.7.8,1.3,0,1.9-.8,1.9-2.4v-34.9Z"/>
</svg>